HIERARCHY
ROOT hip
{
  OFFSET 0 0 0
  CHANNELS 6 Xposition Yposition Zposition Zrotation Yrotation Xrotation
  JOINT abdomen
  {
    OFFSET 0 20.6881 -0.73152
    CHANNELS 3 Zrotation Xrotation Yrotation
    JOINT chest
    {
      OFFSET 0 11.7043 -0.48768
      CHANNELS 3 Zrotation Xrotation Yrotation
      JOINT neck
      {
        OFFSET 0 22.1894 -2.19456
        CHANNELS 3 Zrotation Xrotation Yrotation
        JOINT head
        {
          OFFSET -0.24384 7.07133 1.2192
          CHANNELS 3 Zrotation Xrotation Yrotation
          JOINT leftEye
          {
            OFFSET 4.14528 8.04674 8.04672
            CHANNELS 3 Zrotation Xrotation Yrotation
            End Site
            {
              OFFSET 1 0 0
            }
          }
          JOINT rightEye
          {
            OFFSET -3.6576 8.04674 8.04672
            CHANNELS 3 Zrotation Xrotation Yrotation
            End Site
            {
              OFFSET 1 0 0
            }
          }
        }
      }
      JOINT rCollar
      {
        OFFSET -2.68224 19.2634 -4.8768
        CHANNELS 3 Zrotation Xrotation Yrotation
        JOINT rShldr
        {
          OFFSET -8.77824 -1.95073 1.46304
          CHANNELS 3 Zrotation Xrotation Yrotation
          JOINT rForeArm
          {
            OFFSET -28.1742 -1.7115 0.48768
            CHANNELS 3 Zrotation Xrotation Yrotation
            JOINT rHand
            {
              OFFSET -22.5879 0.773209 7.07136
              CHANNELS 3 Zrotation Xrotation Yrotation
              JOINT rThumb1
              {
                OFFSET -1.2192 -0.487915 3.41376
                CHANNELS 3 Zrotation Xrotation Yrotation
                JOINT rThumb2
                {
                  OFFSET -3.37035 -0.52449 3.41376
                  CHANNELS 3 Zrotation Xrotation Yrotation
                  End Site
                  {
                    OFFSET -1.78271 -1.18214 1.43049
                  }
                }
              }
              JOINT rIndex1
              {
                OFFSET -7.75947 0.938293 5.60832
                CHANNELS 3 Zrotation Xrotation Yrotation
                JOINT rIndex2
                {
                  OFFSET -2.54057 -0.884171 1.56538
                  CHANNELS 3 Zrotation Xrotation Yrotation
                  End Site
                  {
                    OFFSET -1.62519 -0.234802 1.16502
                  }
                }
              }
              JOINT rMid1
              {
                OFFSET -8.24714 1.18213 3.41376
                CHANNELS 3 Zrotation Xrotation Yrotation
                JOINT rMid2
                {
                  OFFSET -3.10165 -0.590103 1.0647
                  CHANNELS 3 Zrotation Xrotation Yrotation
                  End Site
                  {
                    OFFSET -2.48547 -0.328903 0.83742
                  }
                }
              }
              JOINT rRing1
              {
                OFFSET -8.82822 0.546677 1.51678
                CHANNELS 3 Zrotation Xrotation Yrotation
                JOINT rRing2
                {
                  OFFSET -2.60934 -0.819778 -0.0198488
                  CHANNELS 3 Zrotation Xrotation Yrotation
                  End Site
                  {
                    OFFSET -2.33842 -0.294052 0.168128
                  }
                }
              }
              JOINT rPinky1
              {
                OFFSET -8.27202 -0.0477905 -0.4584
                CHANNELS 3 Zrotation Xrotation Yrotation
                JOINT rPinky2
                {
                  OFFSET -1.82734 -0.647385 -0.700984
                  CHANNELS 3 Zrotation Xrotation Yrotation
                  End Site
                  {
                    OFFSET -1.69225 -0.51767 -0.607171
                  }
                }
              }
            }
          }
        }
      }
      JOINT lCollar
      {
        OFFSET 2.68224 19.2634 -4.8768
        CHANNELS 3 Zrotation Xrotation Yrotation
        JOINT lShldr
        {
          OFFSET 8.77824 -1.95073 1.46304
          CHANNELS 3 Zrotation Xrotation Yrotation
          JOINT lForeArm
          {
            OFFSET 28.1742 -1.7115 0.48768
            CHANNELS 3 Zrotation Xrotation Yrotation
            JOINT lHand
            {
              OFFSET 22.5879 0.773209 7.07136
              CHANNELS 3 Zrotation Xrotation Yrotation
              JOINT lThumb1
              {
                OFFSET 1.2192 -0.487915 3.41376
                CHANNELS 3 Zrotation Xrotation Yrotation
                JOINT lThumb2
                {
                  OFFSET 3.37035 -0.52449 3.41376
                  CHANNELS 3 Zrotation Xrotation Yrotation
                  End Site
                  {
                    OFFSET 1.78271 -1.18214 1.43049
                  }
                }
              }
              JOINT lIndex1
              {
                OFFSET 7.75947 0.938293 5.60832
                CHANNELS 3 Zrotation Xrotation Yrotation
                JOINT lIndex2
                {
                  OFFSET 2.54057 -0.884171 1.56538
                  CHANNELS 3 Zrotation Xrotation Yrotation
                  End Site
                  {
                    OFFSET 1.62519 -0.234802 1.16502
                  }
                }
              }
              JOINT lMid1
              {
                OFFSET 8.24714 1.18213 3.41376
                CHANNELS 3 Zrotation Xrotation Yrotation
                JOINT lMid2
                {
                  OFFSET 3.10165 -0.590103 1.0647
                  CHANNELS 3 Zrotation Xrotation Yrotation
                  End Site
                  {
                    OFFSET 2.48547 -0.328903 0.83742
                  }
                }
              }
              JOINT lRing1
              {
                OFFSET 8.82822 0.546677 1.51678
                CHANNELS 3 Zrotation Xrotation Yrotation
                JOINT lRing2
                {
                  OFFSET 2.60934 -0.819778 -0.0198488
                  CHANNELS 3 Zrotation Xrotation Yrotation
                  End Site
                  {
                    OFFSET 2.33842 -0.294052 0.168128
                  }
                }
              }
              JOINT lPinky1
              {
                OFFSET 8.27202 -0.0477905 -0.4584
                CHANNELS 3 Zrotation Xrotation Yrotation
                JOINT lPinky2
                {
                  OFFSET 1.82734 -0.647385 -0.700984
                  CHANNELS 3 Zrotation Xrotation Yrotation
                  End Site
                  {
                    OFFSET 1.69225 -0.51767 -0.607171
                  }
                }
              }
            }
          }
        }
      }
    }
  }
  JOINT rButtock
  {
    OFFSET -8.77824 4.35084 1.2192
    CHANNELS 3 Zrotation Xrotation Yrotation
    JOINT rThigh
    {
      OFFSET 0 -1.70687 -2.19456
      CHANNELS 3 Zrotation Xrotation Yrotation
      JOINT rShin
      {
        OFFSET 0 -36.8199 0.73152
        CHANNELS 3 Zrotation Xrotation Yrotation
        JOINT rFoot
        {
          OFFSET 0.73152 -45.1104 -5.12064
          CHANNELS 3 Zrotation Xrotation Yrotation
          End Site
          {
            OFFSET -1.1221 -3.69964 12.103
          }
        }
      }
    }
  }
  JOINT lButtock
  {
    OFFSET 8.77824 4.35084 1.2192
    CHANNELS 3 Zrotation Xrotation Yrotation
    JOINT lThigh
    {
      OFFSET 0 -1.70687 -2.19456
      CHANNELS 3 Zrotation Xrotation Yrotation
      JOINT lShin
      {
        OFFSET 0 -36.8199 0.73152
        CHANNELS 3 Zrotation Xrotation Yrotation
        JOINT lFoot
        {
          OFFSET -0.73152 -45.1104 -5.12064
          CHANNELS 3 Zrotation Xrotation Yrotation
          End Site
          {
            OFFSET 1.1221 -3.69964 12.103
          }
        }
      }
    }
  }
}
MOTION
Frames:	5
Frame Time:	0.03333
0.0 0.0 0.0 0.0 0.0 0.0 0.0 0.0 0.0 0.0 0.0 0.0 0.0 0.0 0.0 0.0 0.0 0.0 0.0 0.0 0.0 0.0 0.0 0.0 0.0 0.0 0.0 0.0 0.0 0.0 0.0 0.0 0.0 0.0 0.0 0.0 0.0 0.0 0.0 0.0 0.0 0.0 0.0 0.0 0.0 0.0 0.0 0.0 0.0 0.0 0.0 0.0 0.0 0.0 0.0 0.0 0.0 0.0 0.0 0.0 0.0 0.0 0.0 0.0 0.0 0.0 0.0 0.0 0.0 0.0 0.0 0.0 0.0 0.0 0.0 0.0 0.0 0.0 0.0 0.0 0.0 0.0 0.0 0.0 0.0 0.0 0.0 0.0 0.0 0.0 0.0 0.0 0.0 0.0 0.0 0.0 0.0 0.0 0.0 0.0 0.0 0.0 0.0 0.0 0.0 0.0 0.0 0.0 0.0 0.0 0.0 0.0 0.0 0.0 0.0 0.0 0.0 0.0 0.0 0.0 0.0 0.0 0.0 0.0 0.0 0.0 0.0 0.0 0.0 0.0 0.0 0.0
5.7945 60.9404 -182.904 -9.202827 -27.191751 6.361905 2.678014 5.917665 131.142093 -5.088775 -1.158282 -119.419035 6.194108 24.87099 100.595725 -28.0353 12.87156 -128.717085 0.000254 -0.0 -0.001501 0.000175 0.0 0.002469 -155.61367 -4.236131 161.99195 131.27082 -10.854535 169.905138 -95.334458 37.215686 66.129798 45.186424 -60.917837 33.817008 -166.63162 -4.30464 89.772032 -26.74083 -33.000892 6.86037 -108.427254 34.160899 91.743038 152.832145 -59.030778 95.887034 -36.036729 51.722786 29.832812 -163.419883 -5.750264 143.354742 0.001204 0.063502 0.021364 11.564792 -36.415172 -4.39204 -25.538618 -38.087514 -24.597971 -19.570531 -37.740728 -21.258961 14.148827 43.061318 -15.997432 -73.612051 -0.862284 -46.877434 -68.214789 -51.38674 -73.843274 115.702057 78.927716 -99.823088 121.364221 30.329589 -71.958229 167.586805 -26.080958 -77.167163 -24.07637 -42.306324 5.559113 62.839301 50.543392 -51.482347 129.362048 47.296946 -118.700737 4.658477 20.778765 -4.557741 145.12227 1.976822 179.748009 148.2778 -43.039011 170.607042 -1.135361 3.040845 -1.041199 -1.412479 -2.757745 0.853407 0.000724 2.9e-05 -0.000931 -11.115663 9.172447 -0.0 9.309063 35.811853 38.273495 -33.830554 21.118062 -65.296318 -0.000387 -0.000738 0.000497 57.994253 -50.07977 64.389577 75.174571 78.569483 69.238146 -74.186841 -23.349991 -170.82388
5.6559 60.938 -182.863 -9.194396 -27.172214 6.421654 3.177745 9.404355 33.582339 -0.658524 -7.542673 -21.559886 -13.313135 30.577975 -116.083536 27.39821 25.768967 82.495391 0.001247 -0.0 -0.003729 0.001282 0.0 0.004372 3.268629 -26.755821 -5.241943 -94.276868 -29.643849 -150.201055 -164.705686 -3.521266 -143.431955 -3.309168 19.650485 1.289651 171.559534 -25.004824 87.392278 -12.549719 -53.579226 -6.525813 -138.764619 4.487936 115.031836 -80.558376 56.86206 60.71134 -36.03469 51.723528 29.832019 -88.572708 63.983218 80.471829 -74.840913 72.961416 92.827817 5.122659 28.160759 -0.746991 5.664029 16.872198 5.086145 -155.712399 40.908977 -148.833162 150.168956 21.535523 -155.275991 86.339073 41.248328 -38.04079 72.908041 -74.126 133.036787 -126.936287 -59.065938 -114.22608 16.368539 14.93047 -4.597128 10.397039 9.079021 -17.390757 -159.641892 -69.973467 -102.396145 178.800453 -47.770359 -109.904927 82.840948 61.110686 -74.532132 170.17544 -26.297808 -144.096512 138.590543 43.492538 -163.726614 -7.874369 36.786329 3.091461 25.538182 -38.087267 24.598789 120.489034 -37.232046 119.795019 -179.998114 75.749276 -0.0 113.52119 78.068853 65.797739 3.225609 47.267103 -150.540645 27.244787 23.69862 109.399555 -179.963389 75.75074 -0.030123 -146.388135 8.057498 -4.576831 -10.397056 74.769881 19.221594 170.830175 -25.62437 -5.233287
5.5439 60.931400000000004 -182.853 -9.161372 -27.206834 6.475172 4.494737 9.734259 -0.576534 2.287268 -7.171511 12.672121 -15.345232 26.400055 -88.532876 31.201155 13.378233 57.439262 0.002864 0.0 0.001822 0.002864 0.0 0.001822 0.16254 -0.99017 -0.217814 -101.774701 -15.333679 -177.485284 179.77162 2.681349 -142.640625 -9.844303 37.810625 2.960519 -162.89222 -0.575405 89.353435 13.343652 -55.158937 18.441254 5.922286 -10.174251 -2.969404 -177.239211 -35.183287 106.312913 -36.036476 51.722977 29.832448 -163.124275 -4.85116 143.265223 -75.674822 -72.114879 -92.829321 14.026807 28.497114 -0.828747 7.652135 23.805496 6.773557 -147.688798 11.31453 -143.500049 155.45994 -3.227575 -161.778226 -129.331589 -14.763772 -177.74599 -155.016961 8.648948 -129.872465 -170.110424 -1.251467 -149.339046 2.608306 2.554656 -0.457052 -20.892668 -30.845658 12.578529 0.688542 1.108105 -0.393969 65.808001 48.395156 -50.63392 0.057286 0.168028 -0.031086 -2.945992 0.844799 -0.086695 114.671031 66.73204 -135.093189 -5.737822 31.987033 1.520396 16.662373 -29.658844 15.921028 146.389433 10.450451 143.228812 179.999878 75.750301 0.000126 117.106822 76.47547 164.898674 34.404585 -13.922002 -84.06964 132.359867 -61.161725 46.635222 179.999878 75.750301 0.000126 -145.295093 6.825794 -92.655548 -76.024585 -1.742047 90.48179 31.173073 -6.492172 -4.806336
5.4616999999999996 60.9298 -182.81300000000002 -9.142937 -27.254516 6.483064 4.498367 9.875899 -0.58806 2.111521 -7.150957 12.834107 6.50027 24.301089 100.782151 -27.12421 12.855668 -129.437215 0.001709 0.0 0.000202 0.001709 0.0 0.000202 3.772599 -33.701836 -6.514756 -93.705558 -28.709326 -143.536942 -178.902847 3.560675 -142.674112 -9.219391 36.327349 2.712765 88.928194 -50.830811 37.600057 -137.63961 17.901462 100.531436 -140.164826 2.326334 115.877766 -102.650994 53.180044 80.652633 -161.154287 -8.160805 143.464 3.154295 0.178178 0.386774 -77.743907 72.901705 95.870397 5.238242 26.934374 -1.01231 -12.376179 -24.158154 -11.756404 2.955004 -0.015111 -0.103472 80.166585 68.371697 -83.260733 -81.705604 -17.946935 -85.410047 135.474033 56.092894 -88.403007 -115.605847 -62.540901 -103.462589 2.889562 2.828007 -0.513873 41.942184 26.354662 -38.904118 0.042534 0.071867 -0.025931 3.213947 19.100096 -4.813187 -173.124772 -66.297895 -137.615819 5.234116 21.242483 -4.698101 132.483708 54.103 -155.533656 156.62273 -28.959616 176.975447 146.225959 15.470876 142.74671 25.758762 -40.233282 27.024951 179.999048 75.749979 0.000651 118.657342 78.65812 -0.0 -43.169519 21.047333 -64.438124 30.579502 18.653427 94.169279 0.000401 -0.000337 0.000401 58.135478 -50.111602 64.501652 49.848824 71.697973 3.294606 91.178629 -63.794693 -10.651012
